<?xml version="1.0" encoding="utf-8"?>
<!-- Generator: Adobe Illustrator 19.1.0, SVG Export Plug-In . SVG Version: 6.00 Build 0)  -->
<svg version="1.1" id="Layer_1" xmlns="http://www.w3.org/2000/svg" xmlns:xlink="http://www.w3.org/1999/xlink" x="0px" y="0px"
	 viewBox="0 0 1132.7 266.8" style="enable-background:new 0 0 1132.7 266.8;" xml:space="preserve">
<style type="text/css">
	.st0{fill:#1C1C1C;}
	.st1{fill:#24A358;}
	.st2{fill:#DA2B2A;}
</style>
<g>
	<g>
		<path class="st0" d="M266.9,259.9l21.5-79h54.3l21.5,79H416l-64.7-238h-71.5l-64.8,238H266.9z M315.6,81l16.3,59.9h-32.6L315.6,81
			z"/>
	</g>
	<g>
		<g>
			<path class="st0" d="M111.5,266.8c-22.5,0-42.5-7.4-58.4-21.7C13.5,209.3,13,143.4,13,140.6c0-12,1.9-73.7,39.8-106.2
				c13.1-11.2,36.1-23.5,71-18.1c23.6,3.7,44,15.5,58.9,34.2c10.7,13.4,15,25.8,15.7,28.2l-47.6,15.2l0.1,0.3
				c-0.3-1-8.8-24.5-34.8-28.5c-17.5-2.7-26,2.5-30.8,6.6C67.7,87.5,63,123.7,63,140.6c0.1,12,4.7,50.4,23.7,67.4
				c7.9,7.1,17.7,9.8,30.7,8.4c24.5-2.5,32.5-25.2,33.3-27.8l-0.1,0.3l47.9,14.2c-0.7,2.5-4.9,15.4-15.6,29.2
				c-15.2,19.6-36.1,31.3-60.5,33.9C118.8,266.6,115.1,266.8,111.5,266.8z"/>
		</g>
	</g>
	<g>
		<g>
			<g>
				<path class="st1" d="M368.7,125.9"/>
			</g>
			<g>
				<path class="st1" d="M98.5,251.8c-22.5,0-42.5-7.4-58.4-21.7C0.5,194.3,0,128.4,0,125.6c0-12,1.9-73.7,39.8-106.2
					c13.1-11.2,36.1-23.5,71-18.1c23.6,3.7,44,15.5,58.9,34.2c10.7,13.4,15,25.8,15.7,28.2l-47.6,15.2l0.1,0.3
					c-0.3-1-8.8-24.5-34.8-28.5c-17.5-2.7-26,2.5-30.8,6.6C54.7,72.5,50,108.7,50,125.6c0.1,12,4.7,50.4,23.7,67.4
					c7.9,7.1,17.7,9.8,30.7,8.4c24.5-2.5,32.5-25.2,33.3-27.8l-0.1,0.3l47.9,14.2c-0.7,2.5-4.9,15.4-15.6,29.2
					c-15.2,19.6-36.1,31.3-60.5,33.9C105.8,251.6,102.1,251.8,98.5,251.8z"/>
			</g>
		</g>
		<path class="st1" d="M251.9,244.9l21.5-79h54.3l21.5,79H401l-64.7-238h-71.5l-64.8,238H251.9z M300.6,66l16.3,59.9h-32.6L300.6,66
			z"/>
	</g>
	<g>
		<path class="st0" d="M383.7,140.9"/>
	</g>
	<g>
		<g>
			<path class="st0" d="M666.5,266.8c-22.5,0-42.5-7.4-58.4-21.7C568.5,209.3,568,143.4,568,140.6c0-12,1.9-73.7,39.8-106.2
				c13.1-11.2,36.1-23.5,71-18.1c23.6,3.7,44,15.5,58.9,34.2c10.7,13.4,15,25.8,15.7,28.2l-47.6,15.2l0.1,0.3
				c-0.3-1-8.8-24.5-34.8-28.5c-17.5-2.7-26,2.5-30.8,6.6c-17.7,15.2-22.4,51.3-22.4,68.3c0.1,12,4.7,50.4,23.7,67.4
				c7.9,7.1,17.7,9.8,30.7,8.4c24.5-2.5,32.5-25.2,33.3-27.8l-0.1,0.3l47.9,14.2c-0.7,2.5-4.9,15.4-15.6,29.2
				c-15.2,19.6-36.1,31.3-60.5,33.9C673.8,266.6,670.1,266.8,666.5,266.8z"/>
		</g>
		<g>
			<path class="st1" d="M651.5,251.8c-22.5,0-42.5-7.4-58.4-21.7C553.5,194.3,553,128.4,553,125.6c0-12,1.9-73.7,39.8-106.2
				c13.1-11.2,36.1-23.5,71-18.1c23.6,3.7,44,15.5,58.9,34.2c10.7,13.4,15,25.8,15.7,28.2l-47.6,15.2l0.1,0.3
				c-0.3-1-8.8-24.5-34.8-28.5c-17.5-2.7-26,2.5-30.8,6.6c-17.7,15.2-22.4,51.3-22.4,68.3c0.1,12,4.7,50.4,23.7,67.4
				c7.9,7.1,17.7,9.8,30.7,8.4c24.5-2.5,32.5-25.2,33.3-27.8l-0.1,0.3l47.9,14.2c-0.7,2.5-4.9,15.4-15.6,29.2
				c-15.2,19.6-36.1,31.3-60.5,33.9C658.8,251.6,655.1,251.8,651.5,251.8z"/>
		</g>
	</g>
	<g>
		<path class="st1" d="M368.7,125.9"/>
	</g>
	<g>
		<g>
			<path class="st0" d="M1017.5,34.5c-10.8-9.2-27.9-19.2-53.9-19.4c-26,0.2-42.9,10.2-53.7,19.4c-37.9,32.5-39.9,94.2-39.9,106.2
				c0,2.8,0.6,68.7,40.2,104.4c14.7,13.2,32.4,20.5,53.4,21.6c21-1.1,38.9-8.4,53.5-21.6c39.6-35.7,40.4-101.6,40.4-104.4
				C1057.6,128.7,1055.5,67,1017.5,34.5z M983.7,208.1c-5.5,4.9-12,7.7-20,8.5c-8-0.8-14.3-3.6-19.8-8.5c-19-17-23.7-55.4-23.8-67.4
				c0-17,4.8-53.1,22.5-68.3c3.8-3.3,10.1-7.2,21.1-7.4c11,0.2,17.4,4.1,21.2,7.4c17.7,15.2,22.7,51.3,22.7,68.3
				C1007.5,152.7,1002.7,191.1,983.7,208.1z"/>
		</g>
		<g>
			<path class="st1" d="M1002.5,19.5c-10.8-9.2-27.9-19.2-53.9-19.4c-26,0.2-42.9,10.2-53.7,19.4c-37.9,32.5-39.9,94.2-39.9,106.2
				c0,2.8,0.6,68.7,40.2,104.4c14.7,13.2,32.4,20.5,53.4,21.6c21-1.1,38.9-8.4,53.5-21.6c39.6-35.7,40.4-101.6,40.4-104.4
				C1042.6,113.7,1040.5,52,1002.5,19.5z M968.7,193.1c-5.5,4.9-12,7.7-20,8.5c-8-0.8-14.3-3.6-19.8-8.5c-19-17-23.7-55.4-23.8-67.4
				c0-17,4.8-53.1,22.5-68.3c3.8-3.3,10.1-7.2,21.1-7.4c11,0.2,17.4,4.1,21.2,7.4c17.7,15.2,22.7,51.3,22.7,68.3
				C992.5,137.7,987.7,176.1,968.7,193.1z"/>
		</g>
	</g>
	<g>
		<g>
			<rect x="1086.7" y="21.9" class="st0" width="46" height="180"/>
			<rect x="1086.7" y="218.9" class="st0" width="46" height="41"/>
		</g>
		<g>
			<rect x="1071.7" y="6.9" class="st2" width="46" height="180"/>
			<rect x="1071.7" y="203.9" class="st2" width="46" height="41"/>
		</g>
	</g>
	<g>
		<polygon class="st0" points="836.7,21.9 787.7,21.9 787.7,259.9 837.6,259.9 		"/>
		<polygon class="st1" points="821.7,6.9 772.7,6.9 772.7,244.9 822.6,244.9 		"/>
	</g>
	<g>
		<polygon class="st0" points="499.7,209.9 499.5,21.9 449.7,21.9 449.7,259.9 556.7,259.9 556.7,209.9 		"/>
		<polygon class="st1" points="484.7,194.9 484.5,6.9 434.7,6.9 434.7,244.9 541.7,244.9 541.7,194.9 		"/>
	</g>
</g>
</svg>
