<?xml version="1.0" encoding="utf-8"?>
<!-- Generator: Adobe Illustrator 19.1.0, SVG Export Plug-In . SVG Version: 6.00 Build 0)  -->
<svg version="1.1" id="Layer_1" xmlns="http://www.w3.org/2000/svg" xmlns:xlink="http://www.w3.org/1999/xlink" x="0px" y="0px"
	 viewBox="0 0 284.3 266.8" style="enable-background:new 0 0 284.3 266.8;" xml:space="preserve">
<style type="text/css">
	.st0{fill:#24A358;}
	.st1{fill:#1C1C1C;}
	.st2{fill:#F8F8ED;}
	.st3{fill:#DA2B2A;}
</style>
<g>
	<g>
		<g>
			<g>
				<path class="st0" d="M98.5,251.8c-22.5,0-42.5-7.4-58.4-21.7C0.5,194.3,0,128.4,0,125.6c0-12,1.9-73.7,39.8-106.2
					c13.1-11.2,36.1-23.5,71-18.1c23.6,3.7,44,15.5,58.9,34.2c10.7,13.4,15,25.8,15.7,28.2l-47.6,15.2l0.1,0.3
					c-0.3-1-8.8-24.5-34.8-28.5c-17.5-2.7-26,2.5-30.8,6.6C54.7,72.5,50,108.7,50,125.6c0.1,12,4.7,50.4,23.7,67.4
					c7.9,7.1,17.7,9.8,30.7,8.4c24.5-2.5,32.5-25.2,33.3-27.8l-0.1,0.3l47.9,14.2c-0.7,2.5-4.9,15.4-15.6,29.2
					c-15.2,19.6-36.1,31.3-60.5,33.9C105.8,251.6,102.1,251.8,98.5,251.8z"/>
			</g>
			<g>
				<rect x="223.3" y="6.9" class="st0" width="46" height="180"/>
				<g>
					<rect x="223.3" y="203.9" class="st0" width="46" height="41"/>
				</g>
			</g>
		</g>
	</g>
	<g>
		<g>
			<g>
				<path class="st1" d="M113.5,266.8c-22.5,0-42.5-7.4-58.4-21.7C15.5,209.3,15,143.4,15,140.6c0-12,1.9-73.7,39.8-106.2
					c13.1-11.2,36.1-23.5,71-18.1c23.6,3.7,44,15.5,58.9,34.2c10.7,13.4,15,25.8,15.7,28.2l-47.6,15.2l0.1,0.3
					c-0.3-1-8.8-24.5-34.8-28.5c-17.5-2.7-26,2.5-30.8,6.6C69.7,87.5,65,123.7,65,140.6c0.1,12,4.7,50.4,23.7,67.4
					c7.9,7.1,17.7,9.8,30.7,8.4c24.5-2.5,32.5-25.2,33.3-27.8l-0.1,0.3l47.9,14.2c-0.7,2.5-4.9,15.4-15.6,29.2
					c-15.2,19.6-36.1,31.3-60.5,33.9C120.8,266.6,117.1,266.8,113.5,266.8z"/>
			</g>
			<g>
				<rect x="238.3" y="21.9" class="st1" width="46" height="180"/>
				<g>
					<rect x="238.3" y="218.9" class="st1" width="46" height="41"/>
				</g>
			</g>
		</g>
	</g>
	<g>
		<g>
			<g>
				<path class="st2" d="M98.5,251.8c-22.5,0-42.5-7.4-58.4-21.7C0.5,194.3,0,128.4,0,125.6c0-12,1.9-73.7,39.8-106.2
					c13.1-11.2,36.1-23.5,71-18.1c23.6,3.7,44,15.5,58.9,34.2c10.7,13.4,15,25.8,15.7,28.2l-47.6,15.2l0.1,0.3
					c-0.3-1-8.8-24.5-34.8-28.5c-17.5-2.7-26,2.5-30.8,6.6C54.7,72.5,50,108.7,50,125.6c0.1,12,4.7,50.4,23.7,67.4
					c7.9,7.1,17.7,9.8,30.7,8.4c24.5-2.5,32.5-25.2,33.3-27.8l-0.1,0.3l47.9,14.2c-0.7,2.5-4.9,15.4-15.6,29.2
					c-15.2,19.6-36.1,31.3-60.5,33.9C105.8,251.6,102.1,251.8,98.5,251.8z"/>
			</g>
			<g>
				<rect x="223.3" y="6.9" class="st3" width="46" height="180"/>
				<g>
					<rect x="223.3" y="203.9" class="st3" width="46" height="41"/>
				</g>
			</g>
		</g>
	</g>
</g>
</svg>
